<svg width="290" height="76" viewBox="0 0 290 76" xmlns="http://www.w3.org/2000/svg" style="background:#e3012b">
  <g fill="#FFF" fill-rule="evenodd">
    <path d="M131.946,57.575c-3.055,3.381-8.479,4.404-12.77,4.409c-5.2,0.005-12.495-2.784-10.23-10.655l6.416-24 h15.63l-5.536,20.522c-0.714,2.87-0.113,4.957,2.74,4.969c3.31,0.013,4.089-1.433,5.108-4.967l5.54-20.523h15.275l-6.776,25.948 c-0.735,2.881-1.265,4.83-2.265,8.147h-13.992L131.946,57.575z M176.734,36.776c0.518-1.807,0.307-3.227-0.7-4.184 c-0.697-0.664-1.335-0.963-3.427-0.963c-2.251,0-3.71,0.86-4.038,2.335c-0.574,2.565,1.802,3.649,10.766,6.036 c4.514,1.225,9.32,5.16,8.194,10.436c-0.701,3.273-2.608,11.008-21.335,11c-12.086-0.003-19.436-3.605-17.122-13.783h13.463 c-0.442,1.313-0.37,1.313-0.433,2.479c-0.09,1.645,1.546,3.871,5.08,3.896c3.109,0.022,5.158-1.227,5.158-4.018 c0-5.614-22.33-1.753-18.935-15.597c1.842-7.508,11.002-9.44,19.04-9.454c7.826-0.015,17.295,2.682,16.247,11.817H176.734 L176.734,36.776z"/>
    <path d="M195.476,26.617c0.013,0.012,2.211-8.953,2.211-8.953l14.715,0.012l-2.227,8.94h5.957l-2.19,8.67h-6.097 l-3.508,13.867c-0.21,0.832-1.185,2.933,1.11,3.613c1.474,0.437,2.05,0.422,3.917,0.583l-1.92,7.613 c-4.789,0.554-5.068,0.468-7.301,0.474c-10.004,0.022-12.731-3.978-10.649-11.295l3.79-14.856h-4.51l2.191-8.668 C190.966,26.617,195.464,26.604,195.476,26.617 M265.849,23.098h-9.83l3.201-9.082l14.898,0.007L265.849,23.098z M250.312,46.008 c-0.731,2.878,0.354,6.862,4.814,7.204c4.4,0.336,6.604-1.416,7.473-3.605h11.996c-1.209,4.51-3.703,7.962-7.957,9.779 c-4.22,1.947-9.069,2.051-12.732,2.051c-15.745,0-19.158-11.109-17.219-19.07c2.453-10.065,10.065-17.145,21.856-17.145 c16.056,0,19.784,9.084,16.873,20.787L250.312,46.008L250.312,46.008z M263.288,38.726c0.059-1.707-0.004-2.243-0.502-3.457 c-0.402-0.99-1.804-2.051-4.314-2.055c-5.209-0.01-6.105,2.365-6.836,5.512H263.288z"/>
    <path d="M231.19,31.09h0.363c4.385-3.73,5.082-3.997,11.937-4.307l-2.554,11.24 c-1.11-0.062-0.823-0.074-1.869-0.074c-7.993,0.063-10.288,4.51-11.62,10.645l-3.304,12.844h-15.307l6.127-23.836 c0.735-2.874,1.829-7.122,2.696-10.606h14.45L231.19,31.09L231.19,31.09z M49.123,14.016H61.1l-8.318,12.767h-9.92L49.123,14.016z M50.156,61.437l8.557-35.363h15.893l-8.557,35.363H50.156L50.156,61.437z M59.426,23.35l2.213-9.334h15.877l-2.25,9.335 L59.426,23.35L59.426,23.35z M70.22,61.437l11.941-47.42h15.417l-11.941,47.42H70.22z M88.459,61.437l11.878-47.42h15.48 l-11.877,47.42H88.459z"/>
    <path d="M13.679,61.437l11.389-47.42h18.758L35.204,49.51h14.952l-2.77,11.927H13.679z"/>
  </g>
</svg>
